<?xml version="1.0" encoding="UTF-8" standalone="no"?>
<!-- Created with Inkscape (http://www.inkscape.org/) -->

<svg
   xmlns:dc="http://purl.org/dc/elements/1.1/"
   xmlns:cc="http://creativecommons.org/ns#"
   xmlns:rdf="http://www.w3.org/1999/02/22-rdf-syntax-ns#"
   xmlns:svg="http://www.w3.org/2000/svg"
   xmlns="http://www.w3.org/2000/svg"
   xmlns:sodipodi="http://sodipodi.sourceforge.net/DTD/sodipodi-0.dtd"
   xmlns:inkscape="http://www.inkscape.org/namespaces/inkscape"
   width="210mm"
   height="297mm"
   viewBox="0 0 210 297"
   version="1.1"
   id="svg8"
   inkscape:version="0.92.3 (2405546, 2018-03-11)"
   sodipodi:docname="run.svg"
   inkscape:export-filename="/home/takashi/samurai2019/icons/run.png"
   inkscape:export-xdpi="96"
   inkscape:export-ydpi="96">
  <defs
     id="defs2" />
  <sodipodi:namedview
     id="base"
     pagecolor="#ffffff"
     bordercolor="#666666"
     borderopacity="1.0"
     inkscape:pageopacity="0.0"
     inkscape:pageshadow="2"
     inkscape:zoom="1.2302337"
     inkscape:cx="191.81677"
     inkscape:cy="577.91835"
     inkscape:document-units="mm"
     inkscape:current-layer="layer1"
     showgrid="false"
     inkscape:window-width="1920"
     inkscape:window-height="1149"
     inkscape:window-x="0"
     inkscape:window-y="25"
     inkscape:window-maximized="1"
     showguides="false" />
  <metadata
     id="metadata5">
    <rdf:RDF>
      <cc:Work
         rdf:about="">
        <dc:format>image/svg+xml</dc:format>
        <dc:type
           rdf:resource="http://purl.org/dc/dcmitype/StillImage" />
        <dc:title />
      </cc:Work>
    </rdf:RDF>
  </metadata>
  <g
     inkscape:label="Layer 1"
     inkscape:groupmode="layer"
     id="layer1">
    <path
       sodipodi:nodetypes="ccccc"
       inkscape:connector-curvature="0"
       id="path4536"
       d="m 67.930066,191.1088 c -8.670263,4.7107 -22.108625,-4.06915 -7.072658,-15.78361 10.967342,-10.00303 12.953211,-8.53572 17.114494,-27.23641 5.095851,-8.19528 14.544367,0.19142 13.439608,9.71642 -0.719114,17.5842 -6.547621,21.93417 -23.481444,33.3036 z"
       style="fill:#00ff00;fill-opacity:1;stroke:#151515;stroke-width:2;stroke-linecap:butt;stroke-linejoin:miter;stroke-miterlimit:4;stroke-dasharray:none;stroke-opacity:1" />
    <path
       style="fill:#00ff00;fill-opacity:1;stroke:#151515;stroke-width:2;stroke-linecap:butt;stroke-linejoin:miter;stroke-miterlimit:4;stroke-dasharray:none;stroke-opacity:1"
       d="m 128.96305,127.73927 c 6.94694,4.7327 -1.01191,16.03075 -7.6595,11.39027 -9.79382,-6.58595 -19.58766,-13.17189 -29.381475,-19.75784 -7.955719,-5.4623 -0.08662,-16.63926 7.659485,-11.39027 9.79382,6.58595 19.58765,13.17189 29.38149,19.75784 z"
       id="path4534"
       inkscape:connector-curvature="0"
       sodipodi:nodetypes="ccccc" />
    <path
       style="opacity:0.93999999;fill:#00ff00;fill-opacity:1;stroke:#151515;stroke-width:2;stroke-linecap:butt;stroke-linejoin:miter;stroke-miterlimit:4;stroke-dasharray:none;stroke-opacity:1"
       d="m 74.971261,115.90092 c 0,0 8.655568,-24.72129 19.798201,-23.467505 l 16.979168,2.103356 c 9.07733,2.36436 9.24284,24.633539 8.65572,29.125449 -0.93663,8.99234 -10.44004,18.66379 -13.74892,23.96293 -1.23633,6.45367 3.21698,11.62543 6.17599,19.49356 3.29477,8.76094 4.56092,13.37952 -0.018,26.34255 -2.62934,13.30834 -12.34288,12.9341 -15.410507,3.7244 1.541233,-24.05862 -9.419745,-34.57185 -21.970881,-45.05464 -5.308586,-6.17666 -2.802529,-23.79184 -0.460811,-36.2301 z"
       id="path4526"
       inkscape:connector-curvature="0"
       sodipodi:nodetypes="cccccscccc"
       inkscape:export-xdpi="96"
       inkscape:export-ydpi="96" />
    <ellipse
       style="opacity:0.93999999;fill:#00ff00;fill-opacity:1;stroke:#151515;stroke-width:2;stroke-linecap:round;stroke-linejoin:round;stroke-miterlimit:4;stroke-dasharray:none;stroke-dashoffset:0.11338583;stroke-opacity:1"
       id="path4518"
       cx="108.78113"
       cy="82.942337"
       rx="19.007257"
       ry="19.301886" />
    <path
       sodipodi:nodetypes="ccccc"
       inkscape:connector-curvature="0"
       id="path4532"
       d="m 80.730139,106.61591 c 10.666431,-5.00128 16.491074,3.96196 10.986993,9.91422 -18.026357,11.10781 -10.110161,11.70688 -0.340381,26.22203 3.32153,5.64769 -5.541884,13.88483 -13.404849,5.33662 -11.951889,-19.79199 -22.025879,-26.30329 2.758237,-41.47287 z"
       style="fill:#00ff00;fill-opacity:1;stroke:#151515;stroke-width:2;stroke-linecap:butt;stroke-linejoin:miter;stroke-miterlimit:4;stroke-dasharray:none;stroke-opacity:1" />
  </g>
</svg>
