<?xml version="1.0" encoding="UTF-8" standalone="no"?>
<!-- Created with Inkscape (http://www.inkscape.org/) -->

<svg
   xmlns:dc="http://purl.org/dc/elements/1.1/"
   xmlns:cc="http://creativecommons.org/ns#"
   xmlns:rdf="http://www.w3.org/1999/02/22-rdf-syntax-ns#"
   xmlns:svg="http://www.w3.org/2000/svg"
   xmlns="http://www.w3.org/2000/svg"
   xmlns:sodipodi="http://sodipodi.sourceforge.net/DTD/sodipodi-0.dtd"
   xmlns:inkscape="http://www.inkscape.org/namespaces/inkscape"
   width="210mm"
   height="297mm"
   viewBox="0 0 210 297"
   version="1.1"
   id="svg8"
   inkscape:version="0.92.3 (2405546, 2018-03-11)"
   sodipodi:docname="walk.svg"
   inkscape:export-filename="/home/takashi/samurai2019/icons/walk.png"
   inkscape:export-xdpi="96"
   inkscape:export-ydpi="96">
  <defs
     id="defs2" />
  <sodipodi:namedview
     id="base"
     pagecolor="#ffffff"
     bordercolor="#666666"
     borderopacity="1.0"
     inkscape:pageopacity="0.0"
     inkscape:pageshadow="2"
     inkscape:zoom="1.2302337"
     inkscape:cx="31.684593"
     inkscape:cy="577.91835"
     inkscape:document-units="mm"
     inkscape:current-layer="layer1"
     showgrid="false"
     inkscape:window-width="1920"
     inkscape:window-height="1149"
     inkscape:window-x="0"
     inkscape:window-y="25"
     inkscape:window-maximized="1" />
  <metadata
     id="metadata5">
    <rdf:RDF>
      <cc:Work
         rdf:about="">
        <dc:format>image/svg+xml</dc:format>
        <dc:type
           rdf:resource="http://purl.org/dc/dcmitype/StillImage" />
        <dc:title />
      </cc:Work>
    </rdf:RDF>
  </metadata>
  <g
     inkscape:label="Layer 1"
     inkscape:groupmode="layer"
     id="layer1">
    <path
       sodipodi:nodetypes="ccccc"
       inkscape:connector-curvature="0"
       id="path4536"
       d="m 79.890408,198.1441 c -5.831928,7.95944 -19.614036,5.70413 -11.012771,-11.30549 5.651622,-13.72598 7.956219,-16.51984 3.741607,-35.20858 1.112518,-9.58606 13.236005,-6.03187 16.300435,3.05412 6.851487,16.21045 1.435667,25.95271 -9.029271,43.45995 z"
       style="fill:#00ff00;fill-opacity:1;stroke:#040404;stroke-width:2;stroke-linecap:butt;stroke-linejoin:miter;stroke-miterlimit:4;stroke-dasharray:none;stroke-opacity:1" />
    <path
       style="fill:#00ff00;fill-opacity:1;stroke:#040404;stroke-width:2;stroke-linecap:butt;stroke-linejoin:miter;stroke-miterlimit:4;stroke-dasharray:none;stroke-opacity:1"
       d="m 125.09184,130.32009 c 6.94694,4.7327 -1.01191,16.03075 -7.6595,11.39027 -9.79382,-6.58595 -19.587661,-13.17189 -29.381481,-19.75784 -7.955719,-5.4623 -0.08662,-16.63926 7.659485,-11.39027 9.793826,6.58595 19.587656,13.17189 29.381496,19.75784 z"
       id="path4534"
       inkscape:connector-curvature="0"
       sodipodi:nodetypes="ccccc" />
    <path
       style="opacity:0.93999999;fill:#00ff00;fill-opacity:1;stroke:#040404;stroke-width:2;stroke-linecap:butt;stroke-linejoin:miter;stroke-miterlimit:4;stroke-dasharray:none;stroke-opacity:1"
       d="m 71.47315,118.3421 c 0,0 5.764908,-25.550474 16.977813,-25.582148 l 17.108357,0.1433 c 9.28851,1.308311 12.00547,23.411748 11.9371,27.941348 0.10026,9.04043 -8.23195,19.73744 -10.91162,25.38093 -0.48845,6.55284 2.39181,11.42658 6.23318,18.90369 4.27725,8.32554 3.31166,13.30267 5.13811,25.92447 -1.08658,13.52201 -10.77899,14.26362 -14.88204,5.46624 -3.437027,-30.1 -13.320369,-33.26428 -26.990344,-42.23933 -5.981581,-5.52747 -5.511136,-23.3138 -4.610556,-35.9385 z"
       id="path4526"
       inkscape:connector-curvature="0"
       sodipodi:nodetypes="cccccscccc"
       inkscape:export-xdpi="96"
       inkscape:export-ydpi="96" />
    <ellipse
       style="opacity:0.93999999;fill:#00ff00;fill-opacity:1;stroke:#040404;stroke-width:2;stroke-linecap:round;stroke-linejoin:round;stroke-miterlimit:4;stroke-dasharray:none;stroke-dashoffset:0.11338583;stroke-opacity:1"
       id="path4518"
       cx="98.888016"
       cy="79.931389"
       rx="19.007257"
       ry="19.301886" />
    <path
       sodipodi:nodetypes="ccccc"
       inkscape:connector-curvature="0"
       id="path4532"
       d="m 79.834654,107.93184 c 9.749231,-6.61348 16.908545,1.32444 12.40693,8.06683 -16.05946,13.79952 -10.658249,17.90304 1.268711,30.70483 4.166808,5.05635 -2.936564,14.09026 -12.043782,6.88216 -14.910265,-17.67072 -23.727789,-26.78219 -1.631859,-45.65382 z"
       style="fill:#00ff00;fill-opacity:1;stroke:#040404;stroke-width:2;stroke-linecap:butt;stroke-linejoin:miter;stroke-miterlimit:4;stroke-dasharray:none;stroke-opacity:1" />
  </g>
</svg>
